<?xml version="1.0" encoding="iso-8859-1"?>
<!-- Generator: Adobe Illustrator 19.0.0, SVG Export Plug-In . SVG Version: 6.00 Build 0)  -->
<svg version="1.1" id="Layer_1" xmlns="http://www.w3.org/2000/svg" xmlns:xlink="http://www.w3.org/1999/xlink" x="0px" y="0px"
	 viewBox="0 0 512 512" style="enable-background:new 0 0 512 512;" xml:space="preserve">
<rect style="fill:#FBB03B;" width="512" height="255.039"/>
<path style="fill:#F47B50;" d="M128,256c0-70.693,57.307-128,128-128s128,57.307,128,128"/>
<path style="fill:#F15A24;" d="M256,128c-11.071,0-21.755,1.553-32,4.195c55.177,14.23,96,64.183,96,123.805h64
	C384,185.307,326.693,128,256,128z"/>
<rect y="256.418" style="fill:#33BAB1;" width="512" height="255.582"/>
<rect y="256.585" style="fill:#00A99D;" width="512" height="47.083"/>
<rect y="256.418" style="fill:#007F76;" width="512" height="23.585"/>
<path d="M391.638,248.686C387.825,177.173,328.447,120.163,256,120.163s-131.825,57.01-135.638,128.522H0v15.673h512v-15.673
	H391.638z M256,135.837c63.801,0,116.14,49.985,119.934,112.849H136.066C139.86,185.822,192.199,135.837,256,135.837z"/>
<g>
	<rect x="56.424" y="296.751" style="fill:#FFFFFF;" width="199.576" height="15.673"/>
	<rect x="271.673" y="296.751" style="fill:#FFFFFF;" width="32.392" height="15.673"/>
	<rect x="247.641" y="343.771" style="fill:#FFFFFF;" width="176.588" height="15.673"/>
	<rect x="144.196" y="343.771" style="fill:#FFFFFF;" width="79.412" height="15.673"/>
	<rect x="352.131" y="296.751" style="fill:#FFFFFF;" width="96.131" height="15.673"/>
	<rect x="199.576" y="391.837" style="fill:#FFFFFF;" width="135.837" height="15.673"/>
	<rect x="271.673" y="432.588" style="fill:#FFFFFF;" width="136.882" height="15.673"/>
	<rect x="207.935" y="472.294" style="fill:#FFFFFF;" width="80.457" height="15.673"/>
	<rect x="352.131" y="391.837" style="fill:#FFFFFF;" width="31.347" height="15.673"/>
	<rect x="304.065" y="472.294" style="fill:#FFFFFF;" width="48.065" height="15.673"/>
	<rect x="40.751" y="343.771" style="fill:#FFFFFF;" width="15.673" height="15.673"/>
	<rect x="79.412" y="416.914" style="fill:#FFFFFF;" width="40.751" height="15.673"/>
	<rect x="48.065" y="472.294" style="fill:#FFFFFF;" width="39.706" height="15.673"/>
	<rect x="463.935" y="376.163" style="fill:#FFFFFF;" width="24.033" height="15.673"/>
	<rect x="463.935" y="312.424" style="fill:#FFFFFF;" width="32.392" height="15.673"/>
	<rect x="415.869" y="408.555" style="fill:#FFFFFF;" width="16.718" height="15.673"/>
	<rect x="415.869" y="496.327" style="fill:#FFFFFF;" width="25.078" height="15.673"/>
	<rect x="440.947" y="472.294" style="fill:#FFFFFF;" width="55.38" height="15.673"/>
	<rect x="152.555" y="439.902" style="fill:#FFFFFF;" width="39.706" height="15.673"/>
	<rect x="32.392" y="376.163" style="fill:#FFFFFF;" width="71.053" height="15.673"/>
</g>
<polygon points="56,139.082 34.459,117.542 45.541,106.458 56,116.918 70.459,102.459 81.542,113.542 "/>
<polygon points="113.158,160.647 85.522,151.435 90.478,136.565 110.842,143.354 131.653,129.48 140.346,142.521 "/>
<polygon points="392,104.761 372.495,95.009 379.505,80.991 392,87.239 404.495,80.991 411.505,95.009 "/>
<polygon points="448.999,130.085 419.653,110.521 428.346,97.48 447.001,109.916 458.458,98.459 469.542,109.542 "/>
<polygon points="448,91.083 426.458,69.541 437.542,58.459 448,68.917 458.458,58.459 469.542,69.541 "/>
<g>
</g>
<g>
</g>
<g>
</g>
<g>
</g>
<g>
</g>
<g>
</g>
<g>
</g>
<g>
</g>
<g>
</g>
<g>
</g>
<g>
</g>
<g>
</g>
<g>
</g>
<g>
</g>
<g>
</g>
</svg>
