<?xml version="1.0" encoding="UTF-8" standalone="no" ?>
<!DOCTYPE svg PUBLIC "-//W3C//DTD SVG 1.1//EN" "http://www.w3.org/Graphics/SVG/1.1/DTD/svg11.dtd">
<svg xmlns="http://www.w3.org/2000/svg" xmlns:xlink="http://www.w3.org/1999/xlink" version="1.1" width="128" height="128" viewBox="187.69 57.290000000000006 128 128" xml:space="preserve">
<desc>Created with Fabric.js 4.6.0</desc>
<defs>
</defs>
<g transform="matrix(1 0 0 1 251.69 121.29)" id="6xntBCCKf4uMBXNmLKnXK"  >
<g style="" vector-effect="non-scaling-stroke"   >
		<g transform="matrix(1 0 0 1 0 0)" id="85hAr-5UUbgg5cha5nuv5"  >
<path style="stroke: rgb(173,164,93); stroke-width: 0; stroke-dasharray: none; stroke-linecap: butt; stroke-dashoffset: 0; stroke-linejoin: miter; stroke-miterlimit: 4; fill: rgb(0,0,0); fill-rule: nonzero; opacity: 1;" vector-effect="non-scaling-stroke"  transform=" translate(-18, -64)" d="M 0 0 L 36 0 L 36 128 L 0 128 z" stroke-linecap="round" />
</g>
		<g transform="matrix(1 0 0 1 0 0.5)" id="1-WdTCPn_hBgDZQYgvn32"  >
<path style="stroke: rgb(173,164,93); stroke-width: 0; stroke-dasharray: none; stroke-linecap: butt; stroke-dashoffset: 0; stroke-linejoin: miter; stroke-miterlimit: 4; fill: rgb(0,0,0); fill-rule: nonzero; opacity: 1;" vector-effect="non-scaling-stroke"  transform=" translate(-64, -18)" d="M 0 0 L 128 0 L 128 36 L 0 36 z" stroke-linecap="round" />
</g>
</g>
</g>
<g transform="matrix(1 0 0 1 251.69 121.29)" id="M8rDdBWWMqcC03YnlW1CL"  >
<g style="" vector-effect="non-scaling-stroke"   >
		<g transform="matrix(1 0 0 1 0 0)" id="SLy6iIsm8pKZX_46hFiNv"  >
<path style="stroke: rgb(173,164,93); stroke-width: 0; stroke-dasharray: none; stroke-linecap: butt; stroke-dashoffset: 0; stroke-linejoin: miter; stroke-miterlimit: 4; fill: rgb(255,255,255); fill-rule: nonzero; opacity: 1;" vector-effect="non-scaling-stroke"  transform=" translate(-16, -62)" d="M 0 0 L 32 0 L 32 124 L 0 124 z" stroke-linecap="round" />
</g>
		<g transform="matrix(1 0 0 1 0 0.48)" id="E8WW490yfjD5LDcLQQ6zR"  >
<path style="stroke: rgb(173,164,93); stroke-width: 0; stroke-dasharray: none; stroke-linecap: butt; stroke-dashoffset: 0; stroke-linejoin: miter; stroke-miterlimit: 4; fill: rgb(255,255,255); fill-rule: nonzero; opacity: 1;" vector-effect="non-scaling-stroke"  transform=" translate(-62, -16)" d="M 0 0 L 124 0 L 124 32 L 0 32 z" stroke-linecap="round" />
</g>
</g>
</g>
<g transform="matrix(1 0 0 1 251.69 121.29)" id="adORxkfsO20blt03TYd1I"  >
<g style="" vector-effect="non-scaling-stroke"   >
		<g transform="matrix(1 0 0 1 0 0)" id="21zOUeSDS3UfXV901VgZ-"  >
<path style="stroke: rgb(173,164,93); stroke-width: 0; stroke-dasharray: none; stroke-linecap: butt; stroke-dashoffset: 0; stroke-linejoin: miter; stroke-miterlimit: 4; fill: rgb(247,47,58); fill-rule: nonzero; opacity: 1;" vector-effect="non-scaling-stroke"  transform=" translate(-10, -56)" d="M 0 0 L 20 0 L 20 112 L 0 112 z" stroke-linecap="round" />
</g>
		<g transform="matrix(1 0 0 1 0 0.48)" id="gahzB_ijPHkbxbkNmceM_"  >
<path style="stroke: rgb(173,164,93); stroke-width: 0; stroke-dasharray: none; stroke-linecap: butt; stroke-dashoffset: 0; stroke-linejoin: miter; stroke-miterlimit: 4; fill: rgb(247,47,58); fill-rule: nonzero; opacity: 1;" vector-effect="non-scaling-stroke"  transform=" translate(-56, -10)" d="M 0 0 L 112 0 L 112 20 L 0 20 z" stroke-linecap="round" />
</g>
</g>
</g>
</svg>